<mxfile host="app.diagrams.net" modified="2024-01-08T02:14:02.740Z" agent="Mozilla/5.0 (Windows NT 10.0; Win64; x64) AppleWebKit/537.36 (KHTML, like Gecko) Chrome/120.0.0.0 Safari/537.36" version="22.1.17" etag="nG52gFwL8dckcf2zU3YS" type="github">
  <diagram name="Pagina-1" id="eF213xQjT-rC7hFNeijE">
    <mxGraphModel>
      <root>
        <mxCell id="0" />
        <mxCell id="1" parent="0" />
      </root>
    </mxGraphModel>
  </diagram>
</mxfile>
